<?xml version="1.0" encoding="utf-8"?>
<!-- Generator: Adobe Illustrator 25.1.0, SVG Export Plug-In . SVG Version: 6.00 Build 0)  -->
<svg version="1.1" id="레이어_1" xmlns="http://www.w3.org/2000/svg" xmlns:xlink="http://www.w3.org/1999/xlink" x="0px"
	 y="0px" viewBox="0 0 85.04 85.04" style="enable-background:new 0 0 85.04 85.04;" xml:space="preserve">
<style type="text/css">
	.st0{fill:#FFFFFF;stroke:#919191;stroke-width:0.1;stroke-miterlimit:10;}
	.st1{fill:none;stroke:#919191;stroke-width:0.1;stroke-miterlimit:10;}
</style>
<rect class="st0" width="12.15" height="12.15"/>
<rect x="12.15" class="st0" width="12.15" height="12.15"/>
<rect x="24.3" class="st0" width="12.15" height="12.15"/>
<rect x="36.45" class="st0" width="12.15" height="12.15"/>
<rect x="48.59" class="st0" width="12.15" height="12.15"/>
<rect x="60.74" class="st0" width="12.15" height="12.15"/>
<rect x="72.89" class="st0" width="12.15" height="12.15"/>
<rect y="12.15" class="st0" width="12.15" height="12.15"/>
<rect x="12.15" y="12.15" class="st0" width="12.15" height="12.15"/>
<rect x="24.3" y="12.15" class="st0" width="12.15" height="12.15"/>
<rect x="36.45" y="12.15" class="st0" width="12.15" height="12.15"/>
<rect x="48.59" y="12.15" class="st0" width="12.15" height="12.15"/>
<rect x="60.74" y="12.15" class="st0" width="12.15" height="12.15"/>
<rect x="72.89" y="12.15" class="st0" width="12.15" height="12.15"/>
<rect y="24.3" class="st0" width="12.15" height="12.15"/>
<rect x="12.15" y="24.3" class="st0" width="12.15" height="12.15"/>
<rect x="24.3" y="24.3" class="st0" width="12.15" height="12.15"/>
<rect x="36.45" y="24.3" class="st0" width="12.15" height="12.15"/>
<rect x="48.59" y="24.3" class="st0" width="12.15" height="12.15"/>
<rect x="60.74" y="24.3" class="st0" width="12.15" height="12.15"/>
<rect x="72.89" y="24.3" class="st0" width="12.15" height="12.15"/>
<rect y="36.45" class="st0" width="12.15" height="12.15"/>
<rect x="12.15" y="36.45" class="st0" width="12.15" height="12.15"/>
<rect x="24.3" y="36.45" class="st0" width="12.15" height="12.15"/>
<rect x="36.45" y="36.45" class="st0" width="12.15" height="12.15"/>
<rect x="48.59" y="36.45" class="st0" width="12.15" height="12.15"/>
<rect x="60.74" y="36.45" class="st0" width="12.15" height="12.15"/>
<rect x="72.89" y="36.45" class="st0" width="12.15" height="12.15"/>
<rect y="48.59" class="st0" width="12.15" height="12.15"/>
<rect x="12.15" y="48.59" class="st0" width="12.15" height="12.15"/>
<rect x="24.3" y="48.59" class="st0" width="12.15" height="12.15"/>
<rect x="36.45" y="48.59" class="st0" width="12.15" height="12.15"/>
<rect x="48.59" y="48.59" class="st0" width="12.15" height="12.15"/>
<rect x="60.74" y="48.59" class="st0" width="12.15" height="12.15"/>
<rect x="72.89" y="48.59" class="st0" width="12.15" height="12.15"/>
<rect y="60.74" class="st0" width="12.15" height="12.15"/>
<rect x="12.15" y="60.74" class="st0" width="12.15" height="12.15"/>
<rect x="24.3" y="60.74" class="st0" width="12.15" height="12.15"/>
<rect x="36.45" y="60.74" class="st0" width="12.15" height="12.15"/>
<rect x="48.59" y="60.74" class="st0" width="12.15" height="12.15"/>
<rect x="60.74" y="60.74" class="st0" width="12.15" height="12.15"/>
<rect x="72.89" y="60.74" class="st0" width="12.15" height="12.15"/>
<rect y="72.89" class="st0" width="12.15" height="12.15"/>
<rect x="12.15" y="72.89" class="st0" width="12.15" height="12.15"/>
<rect x="24.3" y="72.89" class="st0" width="12.15" height="12.15"/>
<rect x="36.45" y="72.89" class="st0" width="12.15" height="12.15"/>
<rect x="48.59" y="72.89" class="st0" width="12.15" height="12.15"/>
<rect x="60.74" y="72.89" class="st0" width="12.15" height="12.15"/>
<rect x="72.89" y="72.89" class="st0" width="12.15" height="12.15"/>
<line class="st1" x1="85.04" y1="85.04" x2="0" y2="0"/>
<line class="st1" x1="0" y1="85.04" x2="85.04" y2="0"/>
</svg>
